<?xml version='1.0' encoding='UTF-8'?>
<!DOCTYPE svg PUBLIC "-//W3C//DTD SVG 1.0//EN" "http://www.w3.org/TR/2001/REC-SVG-20010904/DTD/svg10.dtd">
<svg viewBox="0 0 608 876" xmlns="http://www.w3.org/2000/svg" xmlns:inkspace="http://www.inkscape.org/namespaces/inkscape" xmlns:xlink="http://www.w3.org/1999/xlink">
  <defs id="defs_block">
    <filter height="1.504" id="filter_blur" inkspace:collect="always" width="1.1575" x="-0.07875" y="-0.252">
      <feGaussianBlur id="feGaussianBlur3780" inkspace:collect="always" stdDeviation="4.2" />
    </filter>
  </defs>
  <title>blockdiag</title>
  <desc>{


  inet [shape = cloud];
  inet -- ICT_router;

  network uol {
      address = "10.101.8.0/21";
      ICT_router;
      tower_5g;
      fastpick_server [address = "10.101.63.143"]
  }

  network private_5g {
      tower_5g;
      mifi_router [address = "10.101.64.36"];
  }

  network robot_mifi {
      address = "192.168.1.0/24";
      mifi_router [address = "192.168.1.1"];
      thorvald_015 [address = "192.168.1.158"];
  }
  group robot {
    color = "#FF7777";
    fastpick_server;
  }
    
  group edge {
    color = "#77FF77";
    mifi_router;
    thorvald_015;
  }


}</desc>
  <rect fill="rgb(255,119,119)" height="92" style="filter:url(#filter_blur)" width="116" x="450" y="418" />
  <rect fill="rgb(119,255,119)" height="236" style="filter:url(#filter_blur)" width="268" x="146" y="562" />
  <path d="M 171 178 A16,8 0 0 1 187 170 A16,6 0 0 1 227 170 A16,8 0 0 1 243 178 A16,8 0 0 1 243 194 A16,20 0 0 1 219 194 A16,20 0 0 1 195 194 A16,20 0 0 1 171 194 A16,8 0 0 1 171 178" fill="rgb(0,0,0)" stroke="rgb(0,0,0)" style="filter:url(#filter_blur);opacity:0.7;fill-opacity:1" />
  <rect fill="rgb(0,0,0)" height="40" stroke="rgb(0,0,0)" style="filter:url(#filter_blur);opacity:0.7;fill-opacity:1" width="104" x="155" y="306" />
  <rect fill="rgb(0,0,0)" height="40" stroke="rgb(0,0,0)" style="filter:url(#filter_blur);opacity:0.7;fill-opacity:1" width="104" x="307" y="450" />
  <rect fill="rgb(0,0,0)" height="40" stroke="rgb(0,0,0)" style="filter:url(#filter_blur);opacity:0.7;fill-opacity:1" width="104" x="459" y="450" />
  <rect fill="rgb(0,0,0)" height="40" stroke="rgb(0,0,0)" style="filter:url(#filter_blur);opacity:0.7;fill-opacity:1" width="104" x="155" y="594" />
  <rect fill="rgb(0,0,0)" height="40" stroke="rgb(0,0,0)" style="filter:url(#filter_blur);opacity:0.7;fill-opacity:1" width="104" x="307" y="738" />
  <path d="M 131 391 L 587 391 A2,4 0 0 1 587 399 L 131 399 A2,4 0 0 1 131 391" fill="rgb(0,0,0)" style="filter:url(#filter_blur)" />
  <path d="M 131 535 L 435 535 A2,4 0 0 1 435 543 L 131 543 A2,4 0 0 1 131 535" fill="rgb(0,0,0)" style="filter:url(#filter_blur)" />
  <path d="M 131 679 L 435 679 A2,4 0 0 1 435 687 L 131 687 A2,4 0 0 1 131 679" fill="rgb(0,0,0)" style="filter:url(#filter_blur)" />
  <path d="M 128 388 L 584 388 A2,4 0 0 1 584 396 L 128 396 A2,4 0 0 1 128 388" fill="rgb(185,203,228)" stroke="rgb(0,0,0)" />
  <path d="M 584 396 A2,4 0 0 1 584 388" fill="none" stroke="rgb(0,0,0)" />
  <path d="M 128 388 L 584 388" fill="none" stroke="none" />
  <path d="M 128 532 L 432 532 A2,4 0 0 1 432 540 L 128 540 A2,4 0 0 1 128 532" fill="rgb(185,203,228)" stroke="rgb(0,0,0)" />
  <path d="M 432 540 A2,4 0 0 1 432 532" fill="none" stroke="rgb(0,0,0)" />
  <path d="M 128 532 L 432 532" fill="none" stroke="none" />
  <path d="M 128 676 L 432 676 A2,4 0 0 1 432 684 L 128 684 A2,4 0 0 1 128 676" fill="rgb(185,203,228)" stroke="rgb(0,0,0)" />
  <path d="M 432 684 A2,4 0 0 1 432 676" fill="none" stroke="rgb(0,0,0)" />
  <path d="M 128 676 L 432 676" fill="none" stroke="none" />
  <text fill="rgb(0,0,0)" font-family="sans-serif" font-size="11" font-style="normal" font-weight="normal" text-anchor="middle" textLength="15" x="112.5" y="391">uol</text>
  <text fill="rgb(0,0,0)" font-family="sans-serif" font-size="11" font-style="normal" font-weight="normal" text-anchor="middle" textLength="84" x="78.0" y="405">10.101.8.0/21</text>
  <text fill="rgb(0,0,0)" font-family="sans-serif" font-size="11" font-style="normal" font-weight="normal" text-anchor="middle" textLength="53" x="93.5" y="543">private_5g</text>
  <text fill="rgb(0,0,0)" font-family="sans-serif" font-size="11" font-style="normal" font-weight="normal" text-anchor="middle" textLength="49" x="95.5" y="679">robot_mifi</text>
  <text fill="rgb(0,0,0)" font-family="sans-serif" font-size="11" font-style="normal" font-weight="normal" text-anchor="middle" textLength="92" x="74.0" y="693">192.168.1.0/24</text>
  <path d="M 204 104 L 204 156" fill="none" stroke="rgb(0,0,0)" />
  <path d="M 204 196 L 204 248" fill="none" stroke="rgb(0,0,0)" />
  <path d="M 168 172 A16,8 0 0 1 184 164 A16,6 0 0 1 224 164 A16,8 0 0 1 240 172 A16,8 0 0 1 240 188 A16,20 0 0 1 216 188 A16,20 0 0 1 192 188 A16,20 0 0 1 168 188 A16,8 0 0 1 168 172" fill="rgb(255,255,255)" stroke="rgb(0,0,0)" />
  <text fill="rgb(0,0,0)" font-family="sans-serif" font-size="11" font-style="normal" font-weight="normal" text-anchor="middle" textLength="18" x="204.0" y="182">inet</text>
  <path d="M 204 248 L 204 300" fill="none" stroke="rgb(0,0,0)" />
  <path d="M 204 340 L 204 388" fill="none" stroke="rgb(0,0,0)" />
  <rect fill="rgb(255,255,255)" height="40" stroke="rgb(0,0,0)" width="104" x="152" y="300" />
  <text fill="rgb(0,0,0)" font-family="sans-serif" font-size="11" font-style="normal" font-weight="normal" text-anchor="middle" textLength="53" x="204.5" y="326">ICT_router</text>
  <path d="M 356 396 L 356 444" fill="none" stroke="rgb(0,0,0)" />
  <path d="M 356 484 L 356 532" fill="none" stroke="rgb(0,0,0)" />
  <rect fill="rgb(255,255,255)" height="40" stroke="rgb(0,0,0)" width="104" x="304" y="444" />
  <text fill="rgb(0,0,0)" font-family="sans-serif" font-size="11" font-style="normal" font-weight="normal" text-anchor="middle" textLength="48" x="356.0" y="471">tower_5g</text>
  <path d="M 508 396 L 508 444" fill="none" stroke="rgb(0,0,0)" />
  <text fill="rgb(0,0,0)" font-family="sans-serif" font-size="11" font-style="normal" font-weight="normal" text-anchor="middle" textLength="86" x="563.0" y="424">10.101.63.143</text>
  <rect fill="rgb(255,255,255)" height="40" stroke="rgb(0,0,0)" width="104" x="456" y="444" />
  <text fill="rgb(0,0,0)" font-family="sans-serif" font-size="11" font-style="normal" font-weight="normal" text-anchor="middle" textLength="75" x="508.5" y="470">fastpick_server</text>
  <path d="M 204 540 L 204 588" fill="none" stroke="rgb(0,0,0)" />
  <text fill="rgb(0,0,0)" font-family="sans-serif" font-size="11" font-style="normal" font-weight="normal" text-anchor="middle" textLength="79" x="255.5" y="568">10.101.64.36</text>
  <path d="M 204 628 L 204 676" fill="none" stroke="rgb(0,0,0)" />
  <text fill="rgb(0,0,0)" font-family="sans-serif" font-size="11" font-style="normal" font-weight="normal" text-anchor="middle" textLength="71" x="251.5" y="656">192.168.1.1</text>
  <rect fill="rgb(255,255,255)" height="40" stroke="rgb(0,0,0)" width="104" x="152" y="588" />
  <text fill="rgb(0,0,0)" font-family="sans-serif" font-size="11" font-style="normal" font-weight="normal" text-anchor="middle" textLength="53" x="204.5" y="614">mifi_router</text>
  <path d="M 356 684 L 356 732" fill="none" stroke="rgb(0,0,0)" />
  <text fill="rgb(0,0,0)" font-family="sans-serif" font-size="11" font-style="normal" font-weight="normal" text-anchor="middle" textLength="87" x="411.5" y="712">192.168.1.158</text>
  <rect fill="rgb(255,255,255)" height="40" stroke="rgb(0,0,0)" width="104" x="304" y="732" />
  <text fill="rgb(0,0,0)" font-family="sans-serif" font-size="11" font-style="normal" font-weight="normal" text-anchor="middle" textLength="68" x="356.0" y="758">thorvald_015</text>
</svg>
